# xmcd
#
# Track frame offsets:
# 150
# 18950
# 30842
# 46592
# 61227
# 76080
# 87237
# 104290
# 117152
# 131850
# 148070
# 161030
# 171502
# 186547
#
# Disc length: 2645 seconds
#
#
# Revision: 1
# Processed by: cddbd v1.5.1PL0 Copyright (c) Steve Scherf et al.
# Submitted via: FreeRIP 2.90 
#
DISCID=b40a530e
DTITLE=Paula MacAskill - Crazy
DYEAR=2004
DGENRE=Country
TTITLE0=Past The Point Of Rescue
TTITLE1=Could I Have This Dance
TTITLE2=Carpenters Medley
TTITLE3=Once A Day
TTITLE4=You Don't Know Me
TTITLE5=Silver Threads and Golden Needles
TTITLE6=Caledonia
TTITLE7=He Broke Your Memory
TTITLE8=It's Getting Better
TTITLE9=I Still Belong To You
TTITLE10=Mi Vida Loca
TTITLE11=Tennessee Waltz
TTITLE12='57 Chevrolet
TTITLE13=Crazy
EXTD=
EXTT0=
EXTT1=
EXTT2=
EXTT3=
EXTT4=
EXTT5=
EXTT6=
EXTT7=
EXTT8=
EXTT9=
EXTT10=
EXTT11=
EXTT12=
EXTT13=
PLAYORDER=
